<?xml version="1.0" standalone="no"?>
<svg xmlns:xlink="http://www.w3.org/1999/xlink" id="wave" style="transform:rotate(0deg); transition: 0.3s" viewBox="0 0 1440 490" version="1.1" xmlns="http://www.w3.org/2000/svg"><defs><linearGradient id="sw-gradient-0" x1="0" x2="0" y1="1" y2="0"><stop stop-color="rgba(5.242, 104.561, 141.481, 1)" offset="0%"/><stop stop-color="rgba(7, 7, 66, 1)" offset="100%"/></linearGradient></defs><path style="transform:translate(0, 0px); opacity:1" fill="url(#sw-gradient-0)" d="M0,196L40,171.5C80,147,160,98,240,65.3C320,33,400,16,480,32.7C560,49,640,98,720,155.2C800,212,880,278,960,277.7C1040,278,1120,212,1200,204.2C1280,196,1360,245,1440,245C1520,245,1600,196,1680,179.7C1760,163,1840,180,1920,163.3C2000,147,2080,98,2160,130.7C2240,163,2320,278,2400,318.5C2480,359,2560,327,2640,310.3C2720,294,2800,294,2880,253.2C2960,212,3040,131,3120,89.8C3200,49,3280,49,3360,40.8C3440,33,3520,16,3600,57.2C3680,98,3760,196,3840,236.8C3920,278,4000,261,4080,220.5C4160,180,4240,114,4320,106.2C4400,98,4480,147,4560,212.3C4640,278,4720,359,4800,400.2C4880,441,4960,441,5040,424.7C5120,408,5200,376,5280,326.7C5360,278,5440,212,5520,212.3C5600,212,5680,278,5720,310.3L5760,343L5760,490L5720,490C5680,490,5600,490,5520,490C5440,490,5360,490,5280,490C5200,490,5120,490,5040,490C4960,490,4880,490,4800,490C4720,490,4640,490,4560,490C4480,490,4400,490,4320,490C4240,490,4160,490,4080,490C4000,490,3920,490,3840,490C3760,490,3680,490,3600,490C3520,490,3440,490,3360,490C3280,490,3200,490,3120,490C3040,490,2960,490,2880,490C2800,490,2720,490,2640,490C2560,490,2480,490,2400,490C2320,490,2240,490,2160,490C2080,490,2000,490,1920,490C1840,490,1760,490,1680,490C1600,490,1520,490,1440,490C1360,490,1280,490,1200,490C1120,490,1040,490,960,490C880,490,800,490,720,490C640,490,560,490,480,490C400,490,320,490,240,490C160,490,80,490,40,490L0,490Z"/><defs><linearGradient id="sw-gradient-1" x1="0" x2="0" y1="1" y2="0"><stop stop-color="rgba(40.043, 28.925, 123.267, 1)" offset="0%"/><stop stop-color="rgba(10.68, 88.977, 150.588, 1)" offset="100%"/></linearGradient></defs><path style="transform:translate(0, 50px); opacity:0.9" fill="url(#sw-gradient-1)" d="M0,0L40,0C80,0,160,0,240,16.3C320,33,400,65,480,73.5C560,82,640,65,720,98C800,131,880,212,960,269.5C1040,327,1120,359,1200,359.3C1280,359,1360,327,1440,326.7C1520,327,1600,359,1680,310.3C1760,261,1840,131,1920,106.2C2000,82,2080,163,2160,236.8C2240,310,2320,376,2400,343C2480,310,2560,180,2640,114.3C2720,49,2800,49,2880,73.5C2960,98,3040,147,3120,204.2C3200,261,3280,327,3360,351.2C3440,376,3520,359,3600,310.3C3680,261,3760,180,3840,196C3920,212,4000,327,4080,359.3C4160,392,4240,343,4320,294C4400,245,4480,196,4560,171.5C4640,147,4720,147,4800,130.7C4880,114,4960,82,5040,57.2C5120,33,5200,16,5280,57.2C5360,98,5440,196,5520,261.3C5600,327,5680,359,5720,375.7L5760,392L5760,490L5720,490C5680,490,5600,490,5520,490C5440,490,5360,490,5280,490C5200,490,5120,490,5040,490C4960,490,4880,490,4800,490C4720,490,4640,490,4560,490C4480,490,4400,490,4320,490C4240,490,4160,490,4080,490C4000,490,3920,490,3840,490C3760,490,3680,490,3600,490C3520,490,3440,490,3360,490C3280,490,3200,490,3120,490C3040,490,2960,490,2880,490C2800,490,2720,490,2640,490C2560,490,2480,490,2400,490C2320,490,2240,490,2160,490C2080,490,2000,490,1920,490C1840,490,1760,490,1680,490C1600,490,1520,490,1440,490C1360,490,1280,490,1200,490C1120,490,1040,490,960,490C880,490,800,490,720,490C640,490,560,490,480,490C400,490,320,490,240,490C160,490,80,490,40,490L0,490Z"/></svg>